<?xml version="1.0" encoding="UTF-8" standalone="no"?>
<!-- Created with Inkscape (http://www.inkscape.org/) -->

<svg
   width="100mm"
   height="100mm"
   viewBox="0 0 100 100"
   version="1.1"
   id="svg1"
   xml:space="preserve"
   inkscape:version="1.3 (0e150ed6c4, 2023-07-21)"
   sodipodi:docname="thumbs-up.svg"
   xmlns:inkscape="http://www.inkscape.org/namespaces/inkscape"
   xmlns:sodipodi="http://sodipodi.sourceforge.net/DTD/sodipodi-0.dtd"
   xmlns="http://www.w3.org/2000/svg"
   xmlns:svg="http://www.w3.org/2000/svg"><sodipodi:namedview
     id="namedview1"
     pagecolor="#ffffff"
     bordercolor="#000000"
     borderopacity="0.25"
     inkscape:showpageshadow="2"
     inkscape:pageopacity="0.0"
     inkscape:pagecheckerboard="0"
     inkscape:deskcolor="#d1d1d1"
     inkscape:document-units="mm"
     inkscape:zoom="1.4289282"
     inkscape:cx="223.59416"
     inkscape:cy="218.34548"
     inkscape:window-width="1920"
     inkscape:window-height="991"
     inkscape:window-x="-9"
     inkscape:window-y="-9"
     inkscape:window-maximized="1"
     inkscape:current-layer="layer1" /><defs
     id="defs1"><inkscape:path-effect
       effect="bspline"
       id="path-effect1"
       is_visible="true"
       lpeversion="1.3"
       weight="33.333333"
       steps="2"
       helper_size="0"
       apply_no_weight="true"
       apply_with_weight="true"
       only_selected="false"
       uniform="false" /></defs><g
     inkscape:label="Layer 1"
     inkscape:groupmode="layer"
     id="layer1"><rect
       style="fill:none;stroke:#1c525b;stroke-width:4.99999;stroke-linecap:round;stroke-linejoin:round;stroke-opacity:1"
       id="rect1"
       width="22.404613"
       height="42.58728"
       x="11.294888"
       y="46.212864" /><path
       style="fill:none;stroke:#1c525b;stroke-width:4.99999;stroke-linecap:round;stroke-linejoin:round;stroke-opacity:1"
       d="m 32.033043,53.203241 c 0,-7.097879 8.88778,-21.725686 8.88778,-21.725686 0,0 -0.185163,-20.36783 -0.185163,-20.36783 5.431421,-0.06172 10.862844,-0.123441 13.825442,4.721731 2.962597,4.845173 3.456354,14.596848 3.95012,24.348719 0,0 23.700748,-0.185164 23.700748,-0.185164 1.604738,2.283667 3.209475,4.567333 3.487208,6.943605 0.277732,2.376272 -0.771499,4.84505 -1.820751,7.313878 2.160225,1.85162 4.32045,3.703241 4.443891,5.554862 0.123441,1.851621 -1.789901,3.703242 -3.703243,5.554863 0.740649,1.419576 1.481298,2.839152 1.357847,4.536491 -0.123451,1.697338 -1.110964,3.672362 -2.684863,4.783337 -1.573899,1.110975 -3.734079,1.357852 -4.505582,2.160235 -0.771503,0.802382 -0.154309,2.16021 -0.185176,3.795828 -0.03087,1.635619 -0.70978,3.548922 -8.57932,4.937646 -7.869539,1.388725 -22.929088,2.252797 -37.988938,3.116886 0,-14.19576 0,-28.391521 0,-35.489401 z"
       id="path1"
       inkscape:path-effect="#path-effect1"
       inkscape:original-d="m 32.033043,46.105362 c 0,0 8.88778,-14.627807 8.88778,-14.627807 0,0 -0.185163,-20.36783 -0.185163,-20.36783 0,0 10.862844,-0.123441 16.294263,-0.185162 0.493776,9.752066 1.481299,29.255612 1.481299,29.255612 0,0 23.700748,-0.185164 23.700748,-0.185164 0,0 3.209475,4.567333 4.814213,6.851 -1.049272,2.468877 -3.147756,7.406483 -3.147756,7.406483 0,0 4.32045,3.703241 6.480675,5.554861 -1.913342,1.851623 -5.740027,5.554864 -5.740027,5.554864 0,0 1.481299,2.839151 2.221947,4.258728 -0.987552,1.975101 -1.975062,3.950126 -2.962595,5.925187 -2.160267,0.246888 -4.320447,0.493766 -6.480672,0.740648 0.61722,1.357882 1.234413,2.71571 1.85162,4.073565 -0.67894,1.913382 -1.357855,3.826685 -2.036781,5.740027 -15.060152,0.864105 -45.179551,2.592268 -45.179551,2.592268 0,0 0,-28.391521 0,-42.58728 z"
       transform="translate(1.6664589,0.1075008)" /></g></svg>
